<?xml version="1.0" encoding="utf-8"?>
<!-- Generator: Adobe Illustrator 22.1.0, SVG Export Plug-In . SVG Version: 6.00 Build 0)  -->
<svg version="1.1" id="Layer_1" xmlns="http://www.w3.org/2000/svg" xmlns:xlink="http://www.w3.org/1999/xlink" x="0px" y="0px"
	 viewBox="0 0 50 50" style="enable-background:new 0 0 50 50;" xml:space="preserve">
<style type="text/css">
	.st0{fill:#FFFFFF;}
	.st1{fill:#169316;}
	.st2{fill:#00C123;}
</style>
<g>
	<path class="st0" d="M25.3,49.7c-13.2,0-24-10.8-24-24s10.8-24,24-24c13.2,0,24,10.8,24,24S38.6,49.7,25.3,49.7z"/>
	<path class="st1" d="M25.3,2.7c12.7,0,23,10.3,23,23s-10.3,23-23,23s-23-10.3-23-23S12.6,2.7,25.3,2.7 M25.3,0.7
		c-13.8,0-25,11.2-25,25s11.2,25,25,25s25-11.2,25-25S39.1,0.7,25.3,0.7L25.3,0.7z"/>
</g>
<polygon class="st2" points="20.5,36.8 36.6,25.7 20.5,14.6 "/>
</svg>
