<?xml version="1.0" encoding="utf-8"?>
<!-- Generator: Adobe Illustrator 22.1.0, SVG Export Plug-In . SVG Version: 6.00 Build 0)  -->
<svg version="1.1" id="Layer_1" xmlns="http://www.w3.org/2000/svg" xmlns:xlink="http://www.w3.org/1999/xlink" x="0px" y="0px"
	 viewBox="0 0 30 30" style="enable-background:new 0 0 30 30;" xml:space="preserve">
<style type="text/css">
	.st0{fill:none;stroke:#000000;stroke-width:2;stroke-miterlimit:10;}
	.st1{fill:#FFDA11;}
	.st2{clip-path:url(#SVGID_2_);}
	.st3{fill:#FFFE5B;}
	.st4{fill:#F79E00;}
	.st5{fill:#FFCF11;}
	.st6{fill:#E47D00;}
	.st7{fill:#FEBD00;}
	.st8{fill:#F8A100;}
	.st9{fill:#F49900;}
</style>
<g>
	<path class="st0" d="M15.2,1.7l5.4,7l8.3,2.9c0.1,0,0.2,0.2,0.1,0.3l-5,7.3L23.7,28c0,0.1-0.1,0.3-0.3,0.2L15,25.9l-8.4,2.4
		c-0.1,0.1-0.3-0.1-0.3-0.2L6,19.2L1,12c-0.1-0.1,0-0.3,0.1-0.3l8.2-3l5.4-6.9C14.9,1.6,15.1,1.6,15.2,1.7z"/>
	<polygon class="st1" points="15,1.5 20,9.5 29.2,11.7 23.1,19 23.7,28.4 15,24.8 6.3,28.4 6.9,19 0.8,11.7 10,9.5 	"/>
	<g>
		<g>
			<defs>
				<polygon id="SVGID_1_" points="15,1.5 20,9.5 29.2,11.7 23.1,19 23.7,28.4 15,24.8 6.3,28.4 6.9,19 0.8,11.7 10,9.5 				"/>
			</defs>
			<clipPath id="SVGID_2_">
				<use xlink:href="#SVGID_1_"  style="overflow:visible;"/>
			</clipPath>
			<g class="st2">
				<polygon class="st1" points="0.8,11.7 15,16.3 15,16.3 10,9.5 4.4,6.9 				"/>
				<polygon class="st3" points="15,1.5 15,16.3 10,9.5 11.3,4.2 				"/>
				<polygon class="st4" points="6.9,19 15,16.3 15,16.3 0.8,11.7 0.3,18.3 				"/>
				<polygon class="st5" points="6.3,28.4 15,16.3 6.9,19 3.9,22.7 				"/>
				<path class="st6" d="M15,16.3l-8.7,12c0,0,3.6,1.8,6.5,3.3l2.2-6.9V16.3L15,16.3z"/>
				<polygon class="st7" points="20,9.5 15,16.3 15,1.5 19.7,3.5 				"/>
				<polygon class="st1" points="29.2,11.7 15,16.3 15,16.3 20,9.5 24.8,8.1 				"/>
				<polygon class="st8" points="29.2,11.7 15,16.3 15,16.3 23.1,19 27.9,16.8 				"/>
				<polygon class="st6" points="23.7,28.4 15,16.3 23.1,19 25.3,23.3 				"/>
				<polygon class="st9" points="23.7,28.4 15,16.3 15,16.3 15,24.8 17.7,28.9 				"/>
			</g>
		</g>
	</g>
</g>
</svg>
