<?xml version="1.0" encoding="utf-8"?>
<!-- Generator: Adobe Illustrator 22.1.0, SVG Export Plug-In . SVG Version: 6.00 Build 0)  -->
<svg version="1.1" id="Layer_1" xmlns="http://www.w3.org/2000/svg" xmlns:xlink="http://www.w3.org/1999/xlink" x="0px" y="0px"
	 viewBox="0 0 52 52" style="enable-background:new 0 0 52 52;" xml:space="preserve">
<style type="text/css">
	.st0{fill:#225DC6;}
	.st1{fill:#0E96F5;}
	.st2{fill:none;stroke:#1969A5;stroke-width:2;stroke-miterlimit:10;}
	.st3{fill:#FFFFFF;}
</style>
<g>
	<g>
		<path class="st0" d="M14,51C6.8,51,1,45.2,1,38V14C1,6.8,6.8,1,14,1h24c7.2,0,13,5.8,13,13v24c0,7.2-5.8,13-13,13H14z"/>
		<path d="M38,2c6.6,0,12,5.4,12,12v24c0,6.6-5.4,12-12,12H14C7.4,50,2,44.6,2,38V14C2,7.4,7.4,2,14,2H38 M38,0H14C6.3,0,0,6.3,0,14
			v24c0,7.7,6.3,14,14,14h24c7.7,0,14-6.3,14-14V14C52,6.3,45.7,0,38,0L38,0z"/>
	</g>
	<path class="st1" d="M37,47H15C9.5,47,5,42.5,5,37V15C5,9.5,9.5,5,15,5h22c5.5,0,10,4.5,10,10v22C47,42.5,42.5,47,37,47z"/>
	<g>
		<path class="st2" d="M35.8,43.3h-20c-2.2,0-4-1.8-4-4v-26c0-2.2,1.8-4,4-4h20c2.2,0,4,1.8,4,4v26C39.8,41.5,38,43.3,35.8,43.3z"/>
		<path class="st3" d="M35.8,43.3h-20c-2.2,0-4-1.8-4-4v-26c0-2.2,1.8-4,4-4h20c2.2,0,4,1.8,4,4v26C39.8,41.5,38,43.3,35.8,43.3z"/>
		<g>
			<path class="st1" d="M32.9,14.4c-1,0-1.6,0.5-2,1.2c-0.1,0.2-3.1,4.9-5,7.9c-1.9-3-4.8-7.7-5-7.9c-0.4-0.6-1-1.2-2-1.2
				c-1,0-1.9,0.7-1.9,1.5v10.8c0,0.8,0.9,1.5,1.9,1.5c1.1,0,1.9-0.7,1.9-1.5v-5.3l3.5,5.5c0.3,0.5,0.9,0.7,1.5,0.7
				c0.6,0,1.2-0.3,1.5-0.7l3.5-5.5v5.3c0,0.8,0.9,1.5,1.9,1.5c1.1,0,1.9-0.7,1.9-1.5V15.9C34.8,15.1,34,14.4,32.9,14.4z"/>
		</g>
	</g>
</g>
</svg>
