<?xml version="1.0" encoding="utf-8"?>
<!-- Generator: Adobe Illustrator 23.0.1, SVG Export Plug-In . SVG Version: 6.00 Build 0)  -->
<svg version="1.1" id="Layer_1" xmlns="http://www.w3.org/2000/svg" xmlns:xlink="http://www.w3.org/1999/xlink" x="0px" y="0px"
	 viewBox="0 0 155 181" style="enable-background:new 0 0 155 181;" xml:space="preserve">
<style type="text/css">
	.st0{fill:#87A2B0;}
	.st1{fill-rule:evenodd;clip-rule:evenodd;fill:#FD2929;}
	.st2{fill-rule:evenodd;clip-rule:evenodd;fill:#0071CE;}
	.st3{fill-rule:evenodd;clip-rule:evenodd;fill:#008BDD;}
	.st4{fill:#FF5F5F;}
	.st5{fill:#FFFFFF;}
	.st6{fill:none;stroke:#FFFFFF;stroke-width:4;stroke-miterlimit:10;}
</style>
<g>
	<path class="st0" d="M145.2,70.4c0-11.5,7.5-24.3,9-26.7c0.9-1.4,0.8-3.2-0.1-4.5c-10.2-15.8-22.5-27.6-26-30.9
		c-0.8-0.7-1.8-1.1-2.9-1.1c-1,0-1.9,0.3-2.7,1c-6.4,5.2-13.2,7.8-20.1,7.8c-11.2,0-19.8-6.9-22.2-9c-0.8-0.7-1.8-1.1-2.8-1.1
		S75.3,6.3,74.6,7c-2.4,2.1-11,9-22.2,9c-6.9,0-13.7-2.6-20.1-7.8c-0.8-0.6-1.7-1-2.7-1c-1.1,0-2.1,0.4-2.9,1.1
		c-3.5,3.2-15.8,15.1-26,30.9c-0.9,1.4-0.9,3.1-0.1,4.5c1.5,2.4,9,15.2,9,26.7c0,3.6-1.6,8.1-3.5,13.2c-4.7,12.9-11.1,30.5,1,54.3
		c7,13.9,21.3,25.7,41.5,34.2c15,6.4,27.8,8.7,28.4,8.8l0.5,0.1l0.5-0.1c0.5-0.1,13.3-2.4,28.4-8.8c20.1-8.5,34.5-20.4,41.5-34.2
		c12-23.9,5.7-41.5,1-54.3C146.8,78.5,145.2,74,145.2,70.4z"/>
	<path d="M144.1,64.5c0-11.5,7.4-24.2,8.9-26.7c0.8-1.4,0.8-3.1-0.1-4.5c-10-15.8-22.1-27.6-25.6-30.8c-0.8-0.7-1.8-1.1-2.9-1.1
		c-1,0-1.9,0.3-2.7,1c-6.3,5.2-13,7.8-19.8,7.8c-11,0-19.5-6.9-21.8-9C79.4,0.4,78.4,0,77.3,0s-2.1,0.4-2.8,1.1
		c-2.3,2.1-10.8,9-21.8,9c-6.8,0-13.4-2.6-19.8-7.8c-0.8-0.6-1.7-1-2.7-1c-1.1,0-2.1,0.4-2.9,1.1c-3.5,3.2-15.6,15-25.6,30.8
		c-0.9,1.4-0.9,3.1-0.1,4.5c1.5,2.4,8.9,15.1,8.9,26.7c0,3.6-1.6,8.1-3.4,13.2C2.5,90.5-3.8,108,8,131.8c6.9,13.8,21,25.6,40.8,34.1
		c14.8,6.3,27.4,8.6,27.9,8.7l0.5,0.1l0.5-0.1c0.5-0.1,13.1-2.4,27.9-8.7c19.8-8.5,33.9-20.3,40.8-34.1c11.8-23.8,5.6-41.3,1-54.2
		C145.7,72.5,144.1,68.1,144.1,64.5z"/>
	<path class="st1" d="M148.2,37.4C137,19.6,122.8,6.9,122.8,6.9C98.6,27.6,77.3,5.6,77.3,5.6S56,27.6,31.8,6.9
		c0,0-14.2,12.7-25.4,30.5c0,0,5.8,8.9,8.2,19.2h125.2C142.4,46.3,148.2,37.4,148.2,37.4z"/>
	<g>
		<path class="st2" d="M9,89.3c-2.8,10.6-3.9,23.5,4.2,39.6c15.5,31.1,64.2,39.8,64.2,39.8s48.7-8.7,64.2-39.8c8-16,7-28.8,4.2-39.3
			C129.1,99,25.6,98.9,9,89.3z"/>
		<path class="st3" d="M139.9,56.6H14.7c0.7,2.8,1.1,5.8,1.1,8.6c0,6.5-4.2,14.2-6.8,24.1c16.6,9.5,41.2,15.5,68.6,15.5
			c27.2,0,51.5-5.9,68.1-15.3c-2.6-9.9-6.9-17.8-6.9-24.3C138.8,62.4,139.2,59.5,139.9,56.6z"/>
	</g>
	<g>
		<path class="st4" d="M25,13.8l-8.8,9.5c1,2.8,3.7,4.9,6.9,4.9c4.1,0,7.4-3.3,7.4-7.3C30.5,17.5,28.1,14.7,25,13.8z"/>
		<ellipse class="st5" cx="23.1" cy="20.9" rx="4.5" ry="4.5"/>
	</g>
	<path class="st5" d="M77.3,9.2c4.7,3.6,13.5,8.9,24.6,8.9c7.7,0,15.1-2.5,22.2-7.5c4.5,4.4,13.1,13.6,20.8,25.1
		c-3,5.3-8.8,17.2-8.8,28.8c0,5,1.8,10,3.9,15.9c4.3,12.1,9.7,27.2-0.6,47.9c-13.6,27.3-55.4,37-62,38.4c-6.7-1.4-48.4-11.1-62-38.4
		c-10.3-20.7-4.9-35.8-0.6-47.9c2.1-5.8,3.9-10.9,3.9-15.9c0-11.6-5.9-23.5-8.8-28.8C17.3,24.2,26,15,30.5,10.6
		c7,5,14.5,7.5,22.2,7.5C63.8,18.1,72.6,12.8,77.3,9.2 M77.3,2.6c0,0-10.2,10.5-24.6,10.5c-6.8,0-14.5-2.3-22.5-9.2
		c0,0-14.7,13.1-26.3,31.6c0,0,9.7,15,9.7,28.9s-18.8,33.8-2.8,66c16.1,32.2,66.6,41.3,66.6,41.3s50.5-9,66.6-41.3
		c16.1-32.2-2.8-52.1-2.8-66s9.7-28.9,9.7-28.9C139.3,17,124.6,3.9,124.6,3.9c-8,6.8-15.7,9.2-22.5,9.2C87.5,13.1,77.3,2.6,77.3,2.6
		z"/>
	<line class="st6" x1="139.7" y1="56.7" x2="14.7" y2="56.7"/>
</g>
</svg>
