<?xml version="1.0" encoding="utf-8"?>
<!-- Generator: Adobe Illustrator 22.1.0, SVG Export Plug-In . SVG Version: 6.00 Build 0)  -->
<svg version="1.1" id="Layer_1" xmlns="http://www.w3.org/2000/svg" xmlns:xlink="http://www.w3.org/1999/xlink" x="0px" y="0px"
	 viewBox="0 0 72 86" style="enable-background:new 0 0 72 86;" xml:space="preserve">
<style type="text/css">
	.st0{fill:#FFFFFF;}
</style>
<g>
	<g>
		<path class="st0" d="M14.8,83.1c-5.2,0-9.5-4.3-9.5-9.5v-30c0-4.3,2.9-8,7-9.2v-8.8c0-6,2.3-11.6,6.6-15.9
			c4.2-4.3,9.9-6.6,15.9-6.6h4c6,0,11.6,2.3,15.9,6.6c4.3,4.3,6.6,9.9,6.6,15.9v8.8c4.1,1.1,7,4.8,7,9.2v30c0,5.2-4.3,9.5-9.5,9.5
			H14.8z M48.3,34.1v-8.5c0-2.5-1-4.9-2.8-6.7c-1.8-1.8-4.2-2.8-6.7-2.8h-4c-2.5,0-4.9,1-6.7,2.8c-1.8,1.8-2.8,4.2-2.8,6.7v8.5H48.3
			z"/>
		<path d="M38.8,4.6c5.8,0,11,2.4,14.8,6.2c3.8,3.8,6.2,9.1,6.2,14.8v10.1c3.9,0.5,7,3.9,7,7.9v30c0,4.4-3.6,8-8,8h-44
			c-4.4,0-8-3.6-8-8v-30c0-4.1,3.1-7.4,7-7.9V25.6c0-5.8,2.4-11.1,6.2-14.8C23.7,7,29,4.6,34.8,4.6h0H38.8L38.8,4.6 M23.8,35.6h26
			v-10c0-3-1.2-5.7-3.2-7.8c-2-2-4.7-3.2-7.8-3.2h-4c-3,0-5.7,1.2-7.8,3.2c-2,2-3.2,4.7-3.2,7.8V35.6 M38.8,1.6L38.8,1.6h-4
			c-6.4,0-12.4,2.5-17,7c-4.5,4.5-7,10.6-7,17v7.8c-4.1,1.6-7,5.6-7,10.2v30c0,6.1,4.9,11,11,11h44c6.1,0,11-4.9,11-11v-30
			c0-4.6-2.9-8.6-7-10.2v-7.8c0-6.4-2.5-12.4-7-17C51.2,4.1,45.2,1.6,38.8,1.6z M26.8,32.6v-7c0-2.1,0.8-4.1,2.4-5.6
			c1.5-1.5,3.5-2.4,5.6-2.4h4c2.1,0,4.1,0.8,5.6,2.4c1.5,1.5,2.4,3.5,2.4,5.6v7H26.8z"/>
	</g>
	<g>
		<circle cx="36.8" cy="55" r="7"/>
		<path d="M36.8,70.8L36.8,70.8c-1.7,0-3-1.3-3-3v-12c0-1.6,1.3-3,3-3h0c1.6,0,3,1.3,3,3v12C39.8,69.4,38.4,70.8,36.8,70.8z"/>
	</g>
</g>
</svg>
