<?xml version="1.0" encoding="utf-8"?>
<!-- Generator: Adobe Illustrator 23.0.2, SVG Export Plug-In . SVG Version: 6.00 Build 0)  -->
<svg version="1.1" id="Layer_1" xmlns="http://www.w3.org/2000/svg" xmlns:xlink="http://www.w3.org/1999/xlink" x="0px" y="0px"
	 viewBox="0 0 20 20" style="enable-background:new 0 0 20 20;" xml:space="preserve">
<style type="text/css">
	.st0{fill:#FFFFFF;}
</style>
<g>
	<path class="st0" d="M9.6-3.6c-7.5,0-13.5,6-13.5,13.5c0,7.5,6,13.5,13.5,13.5c7.5,0,13.5-6,13.5-13.5C23.1,2.5,17.1-3.6,9.6-3.6z
		 M9.6,15.9c-3.3,0-6-2.7-6-6s2.7-6,6-6s6,2.7,6,6S12.9,15.9,9.6,15.9z"/>
	<path class="st0" d="M7-8.6h5.3c0.5,0,0.9,0.4,1,0.9l0.7,5c0.1,0.6-0.4,1.1-1,1.1H6.3c-0.6,0-1.1-0.5-1-1.1l0.7-5
		C6-8.2,6.5-8.6,7-8.6z"/>
	<path class="st0" d="M7,28.4h5.3c0.5,0,0.9-0.4,1-0.9l0.7-5c0.1-0.6-0.4-1.1-1-1.1H6.3c-0.6,0-1.1,0.5-1,1.1l0.7,5
		C6,28.1,6.5,28.4,7,28.4z"/>
	<path class="st0" d="M24.3-1.6l2.6,4.6c0.2,0.4,0.1,1-0.2,1.3l-4,3.1c-0.5,0.4-1.2,0.2-1.5-0.3l-3.4-5.8c-0.3-0.5-0.1-1.2,0.5-1.4
		L23-2.1C23.5-2.2,24-2.1,24.3-1.6z"/>
	<path class="st0" d="M-7.7,16.9l2.6,4.6c0.2,0.4,0.8,0.6,1.2,0.4L0.8,20c0.6-0.2,0.8-0.9,0.5-1.4L-2,12.8c-0.3-0.5-1-0.7-1.5-0.3
		l-4,3.1C-7.9,16-8,16.5-7.7,16.9z"/>
	<path class="st0" d="M-5.1-1.6l-2.6,4.6c-0.2,0.4-0.1,1,0.2,1.3l4,3.1C-3,7.7-2.3,7.6-2,7.1l3.4-5.8c0.3-0.5,0.1-1.2-0.5-1.4
		l-4.7-1.9C-4.3-2.2-4.8-2.1-5.1-1.6z"/>
	<path class="st0" d="M26.9,16.9l-2.6,4.6c-0.2,0.4-0.8,0.6-1.2,0.4L18.4,20c-0.6-0.2-0.8-0.9-0.5-1.4l3.4-5.8
		c0.3-0.5,1-0.7,1.5-0.3l4,3.1C27.1,16,27.2,16.5,26.9,16.9z"/>
</g>
</svg>
