<?xml version="1.0" encoding="utf-8"?>
<!-- Generator: Adobe Illustrator 22.1.0, SVG Export Plug-In . SVG Version: 6.00 Build 0)  -->
<svg version="1.1" id="Layer_1" xmlns="http://www.w3.org/2000/svg" xmlns:xlink="http://www.w3.org/1999/xlink" x="0px" y="0px"
	 viewBox="0 0 1133.9 765.4" style="enable-background:new 0 0 1133.9 765.4;" xml:space="preserve">
<style type="text/css">
	.st0{fill:#FFFFFF;}
</style>
<g>
	<path class="st0" d="M268.2,250.6L258.2,264l-17.9,11.2l-14.6,9l-7.8,12.3l-11.2,4.5l-2.2,6.7l-6.7,7.8l1.1,10.1l-3.4,5.6l2.2,4.5
		l-6.7,4.5v12.3l-4.5,6.7l9,4.5l3.4,5.6l6.7-2.2l3.4,6.7l1.1,11.2l29.1,3.4l-1.1,3.4l40.3,20.1l9-2.2l31.4,2.2l4.5-4.5l21.3-1.1
		l10.1,5.6l10.1,12.3l2.2,13.4l19,7.8l13.4-13.4l16.8,2.2l16.8,13.4l12.3,17.9v10.1l11.2,9l24.6,7.8l6.7-3.4l-9-12.3l6.7-19
		l22.4-13.4l14.6-12.3l22.4-3.4l7.8,2.2l9-3.4l12.3,7.8l7.8,1.1l4.5-5.6l11.2,1.1v-5.6l2.2-5.6l-9,1.1h-10.1l4.5-4.5l14.6-3.4l9,2.2
		l4.5-4.5h15.7l28,7.8l12.3-5.6l25.8,5.6l11.2,15.7l28,21.3l6.7,9l13.4,1.1l9,7.8l12.3,1.1l-6.7-19l-34.7-28l-2.2-7.8l-10.1-2.2
		L700.5,405l-7.8-16.8l13.4-20.1l-3.4-5.6l3.4-4.5l6.7,1.1l-1.1-9l7.8-3.4l4.5-6.7l-9-7.8l-16.8-6.7l-7.8-9l3.4-2.2l6.7,5.6l-1.1-9
		l-7.8-4.5l6.7-1.1l-5.6-10.1h-4.5v-5.6l12.3-3.4l-3.4-4.5l11.2-1.1l-9-3.4l-2.2-4.5l-4.5-3.4l3.4-4.5l-1.1-4.5l4.5,1.1l4.5-4.5
		l-4.5-3.4l-9-1.1l-11.2-7.8l-9,1.1l-1.1,4.5l6.7,9l-2.2,3.4l-15.7,2.2l-11.2,6.7l3.4,5.6l-5.6,4.5L631,283l2.2,5.6l-13.4,11.2
		l-17.9,1.1v-5.6l3.4-3.4l-11.2-7.8l-7.8,2.2l1.1-5.6l-5.6-5.6h-10.1l-2.2,4.5l-6.7,3.4l3.4,5.6l5.6,7.8l-4.5,7.8l-9-4.5l-4.5-13.4
		l1.1-6.7l-5.6,4.5l-3.4-7.8l-15.7-1.1l-12.3-3.4l-7.8,1.1l13.4-9l-22.4,1.1l-4.5-2.2l-7.8-1.1l-5.6-3.4l-5.6,2.2l-82.9-1.1
		l-60.5-3.4l-51.5-7.8l-1.1,4.5h-7.8L268.2,250.6z"/>
</g>
</svg>
