<?xml version="1.0" encoding="utf-8"?>
<!-- Generator: Adobe Illustrator 22.1.0, SVG Export Plug-In . SVG Version: 6.00 Build 0)  -->
<svg version="1.1" id="Layer_1" xmlns="http://www.w3.org/2000/svg" xmlns:xlink="http://www.w3.org/1999/xlink" x="0px" y="0px"
	 viewBox="0 0 1133.9 765.4" style="enable-background:new 0 0 1133.9 765.4;" xml:space="preserve">
<style type="text/css">
	.st0{fill:none;stroke:#000000;stroke-width:8;stroke-linejoin:round;stroke-miterlimit:10;}
	.st1{fill:#FFFFFF;}
	.st2{fill:#1A86FF;}
</style>
<path class="st0" d="M404.4,419.3c0,0-36.6-57.3-40.2-63.8c-3.9-7.1-7.8-17.5-7.8-28.3c0-27.6,21.5-49.9,48-49.9
	c26.5,0,48,22.3,48,49.9c0,9.8-3.6,21.2-7.8,28.3C440.5,362.6,404.4,419.3,404.4,419.3z"/>
<path class="st1" d="M404.4,419.3c0,0-36.6-57.3-40.2-63.8c-3.9-7.1-7.8-17.5-7.8-28.3c0-27.6,21.5-49.9,48-49.9
	c26.5,0,48,22.3,48,49.9c0,9.8-3.6,21.2-7.8,28.3C440.5,362.6,404.4,419.3,404.4,419.3z"/>
<path class="st2" d="M404.4,283.3c23.2,0,42,18.8,42,42c0,23.2-18.8,42-42,42c-23.2,0-42-18.8-42-42
	C362.4,302.1,381.2,283.3,404.4,283.3z"/>
<g>
	<g>
		<path class="st1" d="M399.5,311.3v-13l-24.7,23.8l24.7,23.8v-13.8c14.8-0.6,26.7-2.3,33,13.3C432.6,319.1,421.3,311.9,399.5,311.3
			z"/>
	</g>
</g>
</svg>
