<?xml version="1.0" encoding="utf-8"?>
<!-- Generator: Adobe Illustrator 22.1.0, SVG Export Plug-In . SVG Version: 6.00 Build 0)  -->
<svg version="1.1" id="Layer_1" xmlns="http://www.w3.org/2000/svg" xmlns:xlink="http://www.w3.org/1999/xlink" x="0px" y="0px"
	 viewBox="0 0 184 161" style="enable-background:new 0 0 184 161;" xml:space="preserve">
<style type="text/css">
	.st0{fill:#87A2B0;}
	.st1{fill:#3E82A3;}
	.st2{fill:#67A33E;}
	.st3{fill:#C39C4A;}
	.st4{fill:#4A9BC3;}
	.st5{fill:#7BC34A;}
	.st6{fill:#A3833E;}
	.st7{fill:#F1EF8D;}
	.st8{fill:#CAC876;}
	.st9{fill:#D6D6D6;}
	.st10{fill:#FFFFFF;}
	.st11{fill:none;stroke:#FFFFFF;stroke-miterlimit:10;}
	.st12{fill:none;stroke:#FFFFFF;stroke-miterlimit:10;stroke-dasharray:6.0592,5.0493;}
	.st13{opacity:0.4;}
</style>
<g>
	<path class="st0" d="M181.2,6.3c-0.4,0-0.8,0.1-1.2,0.2l-44.3,14.3L93.9,5.3c-0.4-0.2-0.8-0.2-1.3-0.2c-0.4,0-0.9,0.1-1.3,0.2
		L49.6,20.8L5.4,6.5C5,6.4,4.6,6.3,4.2,6.3c-0.9,0-1.8,0.4-2.4,1C1.1,7.9,0.7,8.8,0.7,9.8v132c0,1.4,0.8,2.7,2.1,3.2l0.1,0l0.1,0
		l45.4,14.7c0.4,0.1,0.8,0.2,1.2,0.2c0.4,0,0.9-0.1,1.3-0.2l41.7-15.5l41.7,15.5c0.4,0.2,0.8,0.2,1.3,0.2c0.4,0,0.8-0.1,1.2-0.2
		l45.4-14.7l0.1,0l0.1,0c1.3-0.5,2.1-1.8,2.1-3.2V9.8C184.7,7.9,183.1,6.3,181.2,6.3z"/>
	<path d="M178.2-0.7c-0.5,0-0.9,0.1-1.4,0.3l-41.1,17.2L94-0.6c-0.4-0.2-0.9-0.3-1.4-0.3s-0.9,0.1-1.4,0.3L49.7,16.8L8.5-0.4
		C8.1-0.6,7.6-0.7,7.2-0.7c-0.9,0-1.8,0.4-2.4,1C4.1,0.9,3.7,1.9,3.7,2.8v134c0,1.4,0.8,2.7,2.1,3.2l42.5,17.8
		c0.4,0.2,0.9,0.3,1.4,0.3c0.5,0,0.9-0.1,1.4-0.3l41.6-17.4l41.6,17.4c0.4,0.2,0.9,0.3,1.4,0.3s0.9-0.1,1.4-0.3l42.5-17.8
		c1.3-0.5,2.1-1.8,2.1-3.2V2.8C181.7,0.9,180.1-0.7,178.2-0.7z"/>
	<g>
		<path class="st1" d="M6.7,108v28.9c0,0.2,0.1,0.4,0.3,0.5l42.5,17.8c0.1,0,0.1,0,0.2,0v-50.8L6.7,108z"/>
		<path class="st2" d="M7.4,2.3C7,2.2,6.7,2.4,6.7,2.8V108l43-3.6V20c-0.1,0-0.1,0-0.2,0L7.4,2.3z"/>
		<polygon class="st3" points="135.7,61.3 135.7,114.1 136.3,114.9 178.7,122.6 178.7,26.4 138,61 		"/>
		<g>
			<path class="st4" d="M135.7,114.1v41c0.1,0,0.1,0,0.2,0l42.5-17.8c0.2-0.1,0.3-0.3,0.3-0.5v-14.3l-42.3-7.7L135.7,114.1z"/>
		</g>
		<g>
			<path class="st4" d="M51,104.2l-1.3,0.1v50.8c0.1,0,0.1,0,0.2,0l42.6-17.8c0.1,0,0.1,0,0.2,0V67.8L51,104.2z"/>
		</g>
		<path class="st5" d="M92.7,67.8V2.1c-0.1,0-0.1,0-0.2,0L49.9,19.9c-0.1,0-0.1,0-0.2,0v84.4l1.3-0.1L92.7,67.8z"/>
		<path class="st5" d="M178,2.3l-42.1,17.6c-0.1,0-0.1,0-0.2,0v41.3L138,61l40.7-34.6V2.8C178.7,2.4,178.3,2.2,178,2.3z"/>
		<polygon class="st6" points="135.7,114.1 135.7,61.3 95.2,67.3 		"/>
		<path class="st1" d="M92.9,67.6l-0.2,0.2v69.4c0.1,0,0.1,0,0.2,0l42.6,17.8c0.1,0,0.1,0,0.2,0v-41L92.9,67.6z"/>
		<path class="st2" d="M92.9,67.6l42.8-6.3V20c-0.1,0-0.1,0-0.2,0L92.9,2.1c-0.1,0-0.1,0-0.2,0v65.7L92.9,67.6z"/>
	</g>
	<g>
		<path class="st7" d="M92.2,62.1c-1,0.1-1.9,0.5-2.6,1.2L49.7,98.2v11.1l0.9,0c1.1,0,2.2-0.5,3.1-1.2l38.1-33.4l0.9,1V62L92.2,62.1
			z"/>
		<polygon class="st7" points="135.7,107.5 135.7,120.2 175,126.8 175.5,116.7 138.5,110.6 		"/>
		<path class="st7" d="M137,66.2c1-0.1,1.8-0.5,2.6-1.2l36.4-31l-2.1-11.3l-38.2,32.5v11.1L137,66.2z"/>
		<polygon class="st8" points="48.4,99.3 9.8,100.9 10.2,110.9 49.7,109.2 49.7,98.2 		"/>
		<path class="st8" d="M101.9,70.9l33.8-4.5V55.3l-1.5,1.2L92.7,62v13.6l39.7,42.9c0.8,0.8,1.8,1.4,2.9,1.5l0.5,0.1v-12.7
			L101.9,70.9z"/>
	</g>
	<g>
		<polygon class="st9" points="92.7,130.7 92.7,137.2 135.7,155.1 135.7,148.6 95,131.6 		"/>
		<polygon class="st9" points="6.7,137.2 49.7,155.1 49.7,148.6 12.7,133.2 12.7,11 47.3,25.5 49.7,26.5 49.7,20 6.7,2 		"/>
		<polygon class="st10" points="178.7,137.2 178.7,2 135.7,20 135.7,26.5 172.7,11 172.7,133.2 135.7,148.6 135.9,155.1 		"/>
		<polygon class="st9" points="92.7,8.5 133.3,25.5 135.7,26.5 135.7,20 92.7,2 		"/>
		<polygon class="st10" points="49.7,20 49.7,26.5 92.7,8.5 92.7,2.1 		"/>
		<polygon class="st10" points="49.7,148.6 49.7,155.1 92.7,137.2 92.7,130.7 		"/>
	</g>
	<g>
		<g>
			<g>
				<line class="st11" x1="49.7" y1="26.5" x2="49.7" y2="29.5"/>
				<line class="st12" x1="49.7" y1="34.6" x2="49.7" y2="143.1"/>
				<line class="st11" x1="49.7" y1="145.6" x2="49.7" y2="148.6"/>
			</g>
		</g>
		<g>
			<g>
				<line class="st11" x1="92.7" y1="130.7" x2="92.7" y2="127.7"/>
				<line class="st12" x1="92.7" y1="122.6" x2="92.7" y2="14.1"/>
				<line class="st11" x1="92.7" y1="11.5" x2="92.7" y2="8.5"/>
			</g>
		</g>
		<g>
			<g>
				<line class="st11" x1="135.7" y1="26.5" x2="135.7" y2="29.5"/>
				<line class="st12" x1="135.7" y1="34.6" x2="135.7" y2="143.1"/>
				<line class="st11" x1="135.7" y1="145.6" x2="135.7" y2="148.6"/>
			</g>
		</g>
		<g>
			<polygon class="st10" points="53.1,65 53.4,65.9 59,63.6 58.6,62.7 			"/>
			<polygon class="st9" points="42.9,64.7 48.4,67 48.8,66.1 43.3,63.7 			"/>
			<polygon class="st10" points="63.2,60.7 63.6,61.7 69.1,59.3 68.7,58.4 			"/>
			<polygon class="st9" points="22.6,56.2 28.2,58.5 28.5,57.6 23,55.3 			"/>
			<polygon class="st9" points="12.5,51.9 18,54.3 18.4,53.3 12.9,51 			"/>
			<polygon class="st10" points="83.5,52.3 83.9,53.2 89.4,50.9 89,49.9 			"/>
			<polygon class="st9" points="32.8,60.4 38.3,62.7 38.7,61.8 33.2,59.5 			"/>
			<polygon class="st10" points="73.4,56.5 73.7,57.4 79.3,55.1 78.9,54.2 			"/>
			<polygon class="st9" points="134.6,66 134.2,66.9 135.7,67.5 135.7,66.4 			"/>
			<polygon class="st10" points="140.2,65.6 139.8,64.7 135.7,66.4 135.7,66.4 135.7,67.5 135.7,67.5 			"/>
			<polygon class="st10" points="144.4,62.8 144.8,63.7 150.3,61.4 149.9,60.4 			"/>
			<polygon class="st10" points="154.5,58.5 154.9,59.4 160.5,57.1 160.1,56.2 			"/>
			<polygon class="st10" points="170.2,52 164.7,54.3 165.1,55.2 170.6,52.9 			"/>
			<polygon class="st9" points="124.1,62.7 129.6,65 130,64.1 124.5,61.8 			"/>
			<polygon class="st9" points="103.8,54.2 109.3,56.5 109.7,55.6 104.2,53.3 			"/>
			<polygon class="st9" points="113.9,58.4 119.5,60.8 119.9,59.8 114.3,57.5 			"/>
			<polygon class="st9" points="93.6,50 99.2,52.3 99.6,51.4 94,49 			"/>
		</g>
		<g>
			<polygon class="st10" points="53.1,106.9 53.4,107.8 59,105.5 58.6,104.6 			"/>
			<polygon class="st9" points="42.9,106.6 48.4,108.9 48.8,108 43.3,105.7 			"/>
			<polygon class="st10" points="63.2,102.7 63.6,103.6 69.1,101.3 68.7,100.4 			"/>
			<polygon class="st9" points="22.6,98.1 28.2,100.4 28.5,99.5 23,97.2 			"/>
			<polygon class="st9" points="12.5,93.9 18,96.2 18.4,95.3 12.9,93 			"/>
			<polygon class="st10" points="83.5,94.2 83.9,95.1 89.4,92.8 89,91.9 			"/>
			<polygon class="st9" points="32.8,102.4 38.3,104.7 38.7,103.7 33.2,101.4 			"/>
			<polygon class="st10" points="73.4,98.4 73.7,99.4 79.3,97 78.9,96.1 			"/>
			<polygon class="st9" points="134.6,107.9 134.2,108.9 135.7,109.5 135.7,108.4 			"/>
			<polygon class="st10" points="140.2,107.5 139.8,106.6 135.7,108.3 135.7,108.3 135.7,109.4 135.7,109.4 			"/>
			<polygon class="st10" points="144.4,104.7 144.8,105.6 150.3,103.3 149.9,102.4 			"/>
			<polygon class="st10" points="154.5,100.5 154.9,101.4 160.5,99.1 160.1,98.1 			"/>
			<polygon class="st10" points="170.2,93.9 164.7,96.2 165.1,97.1 170.6,94.8 			"/>
			<polygon class="st9" points="124.1,104.6 129.6,106.9 130,106 124.5,103.7 			"/>
			<polygon class="st9" points="103.8,96.1 109.3,98.5 109.7,97.5 104.2,95.2 			"/>
			<polygon class="st9" points="113.9,100.4 119.5,102.7 119.9,101.8 114.3,99.5 			"/>
			<polygon class="st9" points="93.6,91.9 99.2,94.2 99.6,93.3 94,91 			"/>
		</g>
	</g>
</g>
<g>
	<g class="st13">
		<path d="M78.4,63.9V53.8c0-3.1,1.3-5.8,3.6-7.9c2.2-2,5.2-3.3,8.5-3.3h4.4c3.3,0,6.3,1.2,8.5,3.3c2.2,2,3.6,4.8,3.6,7.9v10.1H78.4
			 M94.9,32.5L94.9,32.5h-4.4h0c-6.4,0-12.2,2.4-16.3,6.2c-4.2,3.8-6.8,9.2-6.8,15V64c-4.3,0.5-7.7,3.9-7.7,8v30.4
			c0,4.5,4,8.1,8.8,8.1h48.4c4.8,0,8.8-3.6,8.8-8.1V72c0-4.1-3.4-7.5-7.7-8V53.8c0-5.9-2.6-11.2-6.8-15
			C107,34.9,101.2,32.5,94.9,32.5"/>
		<path d="M81.4,60.9v-7.1c0-2.1,0.9-4.1,2.6-5.7c1.7-1.6,4.1-2.5,6.5-2.5h4.4c2.5,0,4.8,0.9,6.5,2.5c1.7,1.5,2.6,3.5,2.6,5.7v7.1
			H81.4 M94.9,42.6h-4.4c-3.3,0-6.3,1.2-8.5,3.3c-2.2,2-3.6,4.8-3.6,7.9v10.1H107V53.8c0-3.1-1.3-5.8-3.6-7.9
			C101.2,43.9,98.2,42.6,94.9,42.6 M68.5,110.5c-4.8,0-8.8-3.6-8.8-8.1V72c0-4.1,3.4-7.5,7.7-8V53.8c0-5.9,2.6-11.2,6.8-15
			c4.2-3.8,10-6.2,16.3-6.2h0h4.4h0c6.4,0,12.2,2.4,16.3,6.2c4.2,3.8,6.8,9.2,6.8,15V64c4.3,0.5,7.7,3.9,7.7,8v30.4
			c0,4.5-4,8.1-8.8,8.1H68.5 M94.9,29.5L94.9,29.5h-4.4c-6.9,0-13.4,2.5-18.4,7c-4.9,4.5-7.7,10.8-7.7,17.2v7.8
			c-4.5,1.6-7.7,5.7-7.7,10.4v30.4c0,6.1,5.3,11.1,11.8,11.1h48.4c6.5,0,11.8-5,11.8-11.1V72c0-4.7-3.2-8.8-7.7-10.4v-7.8
			c0-6.4-2.8-12.7-7.8-17.2C108.3,32,101.8,29.5,94.9,29.5"/>
	</g>
	<g>
		<path class="st10" d="M70.8,109.1c-5.2,0-9.5-4.3-9.5-9.5v-30c0-4.3,2.9-8,7-9.2v-8.8c0-6,2.3-11.6,6.6-15.9
			c4.2-4.3,9.9-6.6,15.9-6.6h4c6,0,11.6,2.3,15.9,6.6c4.3,4.3,6.6,9.9,6.6,15.9v8.8c4.1,1.1,7,4.8,7,9.2v30c0,5.2-4.3,9.5-9.5,9.5
			H70.8z M104.3,60.1v-8.5c0-2.5-1-4.9-2.8-6.7c-1.8-1.8-4.2-2.8-6.7-2.8h-4c-2.5,0-4.9,1-6.7,2.8c-1.8,1.8-2.8,4.2-2.8,6.7v8.5
			H104.3z"/>
		<path d="M94.8,30.6c5.8,0,11,2.4,14.8,6.2c3.8,3.8,6.2,9.1,6.2,14.8v10.1c3.9,0.5,7,3.9,7,7.9v30c0,4.4-3.6,8-8,8h-44
			c-4.4,0-8-3.6-8-8v-30c0-4.1,3.1-7.4,7-7.9V51.6c0-5.8,2.4-11.1,6.2-14.8c3.8-3.8,9.1-6.2,14.8-6.2h0H94.8L94.8,30.6 M79.8,61.6
			h26v-10c0-3-1.2-5.7-3.2-7.8c-2-2-4.7-3.2-7.8-3.2h-4c-3,0-5.7,1.2-7.8,3.2c-2,2-3.2,4.7-3.2,7.8V61.6 M94.8,27.6L94.8,27.6h-4
			c-6.4,0-12.4,2.5-17,7c-4.5,4.5-7,10.6-7,17v7.8c-4.1,1.6-7,5.6-7,10.2v30c0,6.1,4.9,11,11,11h44c6.1,0,11-4.9,11-11v-30
			c0-4.6-2.9-8.6-7-10.2v-7.8c0-6.4-2.5-12.4-7-17C107.2,30.1,101.2,27.6,94.8,27.6z M82.8,58.6v-7c0-2.1,0.8-4.1,2.4-5.6
			c1.5-1.5,3.5-2.4,5.6-2.4h4c2.1,0,4.1,0.8,5.6,2.4c1.5,1.5,2.4,3.5,2.4,5.6v7H82.8z"/>
	</g>
	<g>
		<circle cx="92.8" cy="81" r="7"/>
		<path d="M92.8,96.8L92.8,96.8c-1.7,0-3-1.3-3-3v-12c0-1.7,1.3-3,3-3l0,0c1.7,0,3,1.3,3,3v12C95.8,95.4,94.4,96.8,92.8,96.8z"/>
	</g>
</g>
</svg>
